<svg width="1440" height="1024" viewBox="0 0 1440 1024" fill="none" xmlns="http://www.w3.org/2000/svg">
<g clip-path="url(#clip0_4_85)">
<path d="M1440 0H3.05176e-05V1024H1440V0Z" fill="url(#paint0_linear_4_85)"/>
<path d="M531.094 427.943L466.572 581.699L-3.66064 384.371L60.8614 230.615L531.094 427.943ZM275.135 -99.9704L-97.6556 788.391L-300.965 703.075L71.8256 -185.287L275.135 -99.9704ZM821.451 129.285L448.66 1017.65L245.974 932.592L618.765 44.23L821.451 129.285ZM887.088 1201.63L687.52 1117.88L753.289 964.647L951.61 1047.87C996.925 1066.89 1039.44 1072.77 1079.16 1065.52C1119.05 1057.86 1155.55 1037.3 1188.66 1003.84C1221.95 969.959 1250.79 923.943 1275.2 865.777L1292.36 824.897C1310.79 780.967 1322.43 740.406 1327.28 703.212C1332.3 665.614 1330.65 631.673 1322.34 601.393C1314.02 571.113 1298.94 544.694 1277.11 522.138C1255.7 499.758 1227.95 481.414 1193.85 467.106L991.79 382.314L1056.57 227.949L1258.63 312.741C1320.16 338.563 1372.03 372.287 1414.21 413.91C1456.82 455.707 1488.68 503.285 1509.81 556.642C1531.36 610.172 1541.48 667.042 1540.17 727.248C1538.87 787.457 1524.9 849.288 1498.27 912.742L1481.63 952.403C1455.17 1015.45 1420.83 1068.73 1378.61 1112.24C1336.56 1155.36 1288.89 1187.97 1235.6 1210.1C1182.89 1231.99 1126.91 1242.47 1067.65 1241.52C1008.39 1240.57 948.204 1227.27 887.088 1201.63ZM1175.68 277.934L802.892 1166.3L599.586 1080.98L972.377 192.619L1175.68 277.934Z" fill="url(#paint1_linear_4_85)"/>
</g>
<defs>
<linearGradient id="paint0_linear_4_85" x1="720" y1="0" x2="720" y2="1024" gradientUnits="userSpaceOnUse">
<stop stop-color="#CD201F"/>
<stop offset="0.927083"/>
</linearGradient>
<linearGradient id="paint1_linear_4_85" x1="874.15" y1="151.399" x2="501.359" y2="1039.76" gradientUnits="userSpaceOnUse">
<stop offset="0.161458" stop-color="#DA0A0A"/>
<stop offset="1"/>
</linearGradient>
<clipPath id="clip0_4_85">
<rect width="1440" height="1024" fill="white"/>
</clipPath>
</defs>
</svg>
