<svg width="95" height="58" viewBox="0 0 95 58" fill="none" xmlns="http://www.w3.org/2000/svg">
<path d="M81.1187 0H6.50685C2.91322 0 0 2.90682 0 6.49254V48.4776C0 52.0634 2.91322 54.9701 6.50685 54.9701H81.1187C84.7125 54.9701 87.6256 52.0634 87.6256 48.4776V6.49254C87.6256 2.90682 84.7125 0 81.1187 0Z" fill="#C00000"/>
<path d="M38.5699 22.4299V29.5513H15.3893V22.4299H38.5699ZM18.1039 4.38257V48.6941H8.95361V4.38257H18.1039ZM45.0972 4.38257V48.6941H35.9774V4.38257H45.0972ZM59.8204 48.6941H50.1517L50.2128 41.5727H59.8204C62.2199 41.5727 64.2431 41.0349 65.8902 39.9597C67.5373 38.864 68.7775 37.2714 69.6113 35.1814C70.4654 33.0917 70.8923 30.5656 70.8923 27.6035V25.4426C70.8923 23.1702 70.6483 21.1718 70.1602 19.4472C69.6926 17.7228 68.9912 16.2721 68.0557 15.0952C67.1205 13.9184 65.9716 13.0358 64.6093 12.4475C63.2467 11.8388 61.6812 11.5345 59.912 11.5345H49.9688V4.38257H59.912C62.8808 4.38257 65.5953 4.88981 68.0557 5.90424C70.5366 6.89842 72.6816 8.32882 74.4914 10.1954C76.3012 12.062 77.6941 14.2938 78.6701 16.8909C79.6663 19.4675 80.1645 22.3385 80.1645 25.5036V27.6035C80.1645 30.7483 79.6663 33.6193 78.6701 36.2163C77.6941 38.8133 76.3012 41.045 74.4914 42.9116C72.702 44.7579 70.5567 46.1884 68.0557 47.2028C65.5751 48.197 62.8298 48.6941 59.8204 48.6941ZM55.337 4.38257V48.6941H46.1866V4.38257H55.337Z" fill="white"/>
<path d="M44.0298 26.8358L8.45898 4.32837V48.9105L44.0298 26.8358Z" fill="white"/>
<path d="M76.252 51.2557L74.727 52.7849C74.6509 52.5719 74.5466 52.3817 74.4145 52.2144C74.2822 52.0419 74.1323 51.8973 73.9646 51.7807C73.802 51.664 73.6239 51.5751 73.4309 51.5143C73.2376 51.4535 73.0394 51.423 72.8359 51.423C72.5514 51.423 72.282 51.4814 72.0278 51.598C71.7788 51.7147 71.5602 51.8796 71.3719 52.0926C71.189 52.3005 71.0442 52.549 70.9374 52.8381C70.8305 53.1272 70.7772 53.4469 70.7772 53.7968C70.7772 54.081 70.8305 54.3472 70.9374 54.5959C71.0442 54.8443 71.189 55.0625 71.3719 55.2501C71.5602 55.4377 71.7788 55.5849 72.0278 55.6914C72.282 55.7978 72.5514 55.8511 72.8359 55.8511C73.0394 55.8511 73.235 55.8232 73.4233 55.7675C73.6113 55.7117 73.7866 55.6329 73.9493 55.5316C74.1171 55.4252 74.2644 55.2983 74.3915 55.1512C74.5238 54.999 74.6305 54.8315 74.7119 54.6491L76.2368 56.1783C76.0438 56.4523 75.82 56.6981 75.5658 56.9163C75.3168 57.1344 75.0448 57.3195 74.75 57.4718C74.4603 57.624 74.1527 57.738 73.8274 57.8142C73.507 57.8954 73.1767 57.9358 72.8359 57.9358C72.2616 57.9358 71.7202 57.8294 71.2118 57.6164C70.7086 57.3982 70.2664 57.1015 69.8851 56.7261C69.509 56.3508 69.2116 55.9121 68.993 55.4098C68.7744 54.9077 68.665 54.3701 68.665 53.7968C68.665 53.1729 68.7744 52.5897 68.993 52.0469C69.2116 51.5041 69.509 51.0325 69.8851 50.6317C70.2664 50.2259 70.7086 49.9065 71.2118 49.673C71.7202 49.4397 72.2616 49.3231 72.8359 49.3231C73.1767 49.3231 73.5096 49.3661 73.8349 49.4525C74.1653 49.5386 74.478 49.6654 74.7728 49.8329C75.0728 49.9952 75.3474 50.1956 75.5964 50.4339C75.8506 50.6724 76.0692 50.9462 76.252 51.2557ZM81.5571 56.8325C81.3894 56.9849 81.2089 57.1295 81.0157 57.2662C80.8276 57.3983 80.6294 57.5149 80.421 57.6164C80.2125 57.7127 79.9965 57.7887 79.7729 57.8445C79.5543 57.9053 79.3306 57.9358 79.1018 57.9358C78.5986 57.9358 78.1258 57.8471 77.6835 57.6696C77.2413 57.492 76.8524 57.2409 76.5169 56.9163C76.1865 56.5867 75.9247 56.1885 75.7315 55.7219C75.5434 55.2501 75.4493 54.7225 75.4493 54.1392V49.6351H77.5235V54.1392C77.5235 54.4132 77.564 54.6591 77.6454 54.8772C77.7319 55.0904 77.8462 55.2704 77.9885 55.4174C78.131 55.5645 78.296 55.6762 78.4841 55.7522C78.6773 55.8284 78.8832 55.8664 79.1018 55.8664C79.3152 55.8664 79.5161 55.8182 79.7041 55.7219C79.8974 55.6204 80.065 55.4886 80.2075 55.3263C80.3498 55.164 80.4617 54.9813 80.5431 54.7783C80.6244 54.5703 80.665 54.3574 80.665 54.1392V49.6351H82.7467V57.7837H82.2433L81.5571 56.8325ZM86.7172 57.7837C86.214 57.7837 85.7412 57.6898 85.2989 57.5021C84.8567 57.3095 84.4678 57.0483 84.1323 56.7185C83.8019 56.3837 83.5401 55.9956 83.3469 55.5544C83.1588 55.1131 83.0647 54.6413 83.0647 54.1392V51.7197H82.0507V49.6503H83.0647V46.3938H85.1389V49.6503H88.2958V51.7197H85.1389V54.1392C85.1389 54.3574 85.1794 54.5627 85.2608 54.7556C85.3421 54.9432 85.454 55.1081 85.5963 55.2501C85.7388 55.3921 85.9065 55.5063 86.0997 55.5925C86.2927 55.6736 86.4988 55.7143 86.7172 55.7143H88.2958V57.7837H86.7172ZM92.2359 57.7837H87.4776V55.7143H92.2359C92.3782 55.7143 92.5001 55.6634 92.6018 55.5619C92.7035 55.4607 92.7543 55.3388 92.7543 55.1968C92.7543 55.0497 92.7035 54.9534 92.6018 54.9077C92.5001 54.8621 92.3782 54.8393 92.2359 54.8393H90.0702C89.7093 54.8393 89.3713 54.7707 89.056 54.6337C88.7408 54.4967 88.4665 54.3117 88.2327 54.0784C87.9986 53.8399 87.8132 53.5635 87.6759 53.2491C87.5438 52.9346 87.4776 52.5972 87.4776 52.2371C87.4776 51.877 87.5438 51.5396 87.6759 51.2252C87.8132 50.9107 87.9986 50.6369 88.2327 50.4034C88.4665 50.1701 88.7408 49.9877 89.056 49.8557C89.3713 49.7187 89.7093 49.6503 90.0702 49.6503H94.2871V51.7197H90.0702C89.9279 51.7197 89.8058 51.7705 89.7043 51.872C89.6026 51.9733 89.5518 52.0951 89.5518 52.2371C89.5518 52.3843 89.6026 52.5111 89.7043 52.6176C89.8058 52.7191 89.9279 52.7697 90.0702 52.7697H92.2359C92.5916 52.7697 92.9271 52.8305 93.2423 52.9524C93.5574 53.069 93.832 53.2339 94.0658 53.4469C94.2996 53.6598 94.4853 53.9161 94.6226 54.2154C94.7597 54.5147 94.8284 54.8417 94.8284 55.1968C94.8284 55.557 94.7597 55.8944 94.6226 56.2088C94.4853 56.5181 94.2996 56.7921 94.0658 57.0306C93.832 57.2639 93.5574 57.4489 93.2423 57.5859C92.9271 57.7177 92.5916 57.7837 92.2359 57.7837Z" fill="white"/>
</svg>
